/* XPM */
static char *appicon_xpm[]={
"32 24 303 2",
"ce c #545457",
"az c #55555b",
"aU c #55555c",
"ca c #565659",
"aI c #56565c",
"aL c #57575b",
"b. c #57575c",
"bo c #59595e",
"aP c #5a5a5e",
"a3 c #5a5a5f",
"c# c #5a5a60",
"cd c #5a5a61",
"bb c #5b5b60",
"br c #5b5b61",
"cr c #5d5d61",
"bf c #5d5d62",
"cJ c #5e5e60",
"aq c #5e5e64",
"cc c #5e5e65",
"bC c #5f5f63",
"am c #5f5f66",
".1 c #606064",
"bI c #606065",
"#I c #616164",
"cg c #616168",
"b1 c #626267",
"bE c #62626b",
"bZ c #636368",
"#x c #646467",
"aZ c #646468",
"be c #64646e",
"by c #656568",
"#P c #65656a",
"#w c #65656b",
"a2 c #65656f",
"cQ c #666667",
"cM c #666668",
"aN c #66666a",
"as c #66666d",
"#y c #67676b",
"c. c #67676d",
"bQ c #68686b",
"bq c #696973",
"cN c #6a6a6c",
"ar c #6a6a71",
"aH c #6a6a75",
"bx c #6b6b6e",
"bn c #6b6b75",
"ba c #6b6b76",
"cL c #6c6c6d",
".E c #6d6d70",
"bk c #6d6d77",
"bl c #6e6e71",
".6 c #707075",
"a9 c #70707a",
"bB c #70707b",
"#1 c #717179",
"aY c #71717c",
"ae c #727273",
"#Y c #727275",
"b5 c #72727c",
"#u c #73737a",
"a6 c #73737b",
"aT c #73737d",
"aV c #747476",
"aD c #747477",
"cA c #74747c",
"al c #74747e",
"b6 c #757576",
"#l c #75757d",
"bj c #75757e",
"ah c #75757f",
"#7 c #767677",
"a8 c #767680",
"bH c #767681",
"#6 c #777780",
"ad c #777781",
"bU c #787882",
"cB c #79797a",
".J c #79797e",
"bT c #797983",
"#p c #7a7a83",
"ay c #7a7a85",
"#B c #7b7b7f",
"aC c #7b7b86",
"b9 c #7c7c81",
"#N c #7c7c84",
"aX c #7d7d86",
"bY c #7f7f8a",
"#m c #808080",
"bz c #808082",
"at c #80808a",
"#D c #838388",
"#v c #83838c",
"#R c #848486",
"cj c #84848d",
"b0 c #84848e",
"ag c #84848f",
"bG c #85858e",
"#X c #85858f",
"a. c #858590",
"a# c #86868e",
"#z c #86868f",
"b# c #878788",
"#5 c #878791",
"cR c #888888",
"b8 c #888893",
"bX c #898992",
"#H c #898993",
"#Q c #8a8a8a",
"#Z c #8b8b92",
"cu c #8b8b95",
"#e c #8c8c96",
"cD c #8d8d92",
"#C c #8d8d97",
"aQ c #8e8e8e",
"ci c #8e8e95",
"#0 c #8e8e98",
"cP c #8f8f91",
"bd c #8f8f96",
"b4 c #8f8f98",
"ai c #909091",
"bm c #909097",
"#W c #90909b",
"#S c #919191",
"cw c #919197",
"#k c #91919b",
"#O c #91919c",
"bp c #929298",
"cq c #92929c",
"bA c #93939b",
"ap c #94949b",
"cI c #94949d",
"#s c #94949e",
".2 c #959595",
"ch c #969696",
"a1 c #96969d",
"#d c #96969e",
"#A c #9696a1",
"aA c #979797",
"#o c #98989c",
"#V c #98989e",
"bV c #99999b",
"#b c #9999a3",
"#M c #9a9a9b",
"cE c #9a9aa4",
".0 c #9a9aa5",
"#a c #9b9ba5",
".9 c #9c9ca7",
"cv c #9d9da7",
"an c #9e9e9f",
"au c #9e9ea2",
"bD c #9e9ea4",
"aS c #9e9ea5",
"#. c #9e9ea9",
".V c #a0a0a5",
".D c #a0a0a7",
"#c c #a0a0a9",
"#r c #a1a1aa",
"## c #a1a1ac",
"aK c #a2a2a5",
"cz c #a2a2ab",
"aM c #a3a3a3",
"bh c #a3a3a4",
"#q c #a3a3ac",
"cF c #a4a4a7",
"cK c #a6a6a6",
"ax c #a6a6ac",
"af c #a7a7ab",
"aG c #a7a7ac",
"#G c #a7a7ae",
"cm c #a8a8a8",
"#9 c #a8a8ae",
"cH c #a8a8b0",
"cn c #aaaaaa",
".T c #aaaab2",
".U c #aaaab3",
"bN c #adadb0",
"cp c #aeaeb5",
".5 c #aeaeb6",
"co c #afafb0",
"#t c #b0b0b7",
".C c #b1b1b9",
"#J c #b2b2b2",
".3 c #b2b2b8",
"#T c #b3b3b3",
"cs c #b4b4b4",
".Z c #b4b4bb",
"bS c #b5b5b9",
".S c #b7b7bd",
"cl c #b8b8b8",
"#f c #b9b9bb",
"ct c #b9b9bc",
"bv c #bababd",
".I c #babac2",
"aO c #bbbbbb",
"ck c #bbbbbc",
".Q c #bcbcc2",
"Qt c #bdbdbd",
"cb c #bdbdc0",
"ac c #bdbdc1",
".P c #bdbdc3",
".R c #bebec2",
".b c #bfbfbf",
"a5 c #c0c0c0",
"aJ c #c0c0c1",
"aa c #c0c0c3",
"ao c #c0c0c4",
"cS c #c2c2c2",
"#2 c #c2c2c3",
"cf c #c2c2c6",
".O c #c2c2c7",
"bM c #c3c3c5",
"aW c #c4c4c4",
".# c #c5c5c5",
".7 c #c5c5c6",
"#j c #c5c5c9",
".a c #c6c6c6",
".8 c #c6c6ca",
".F c #c7c7c7",
".c c #c8c8c8",
".4 c #c8c8c9",
"#U c #c9c9c9",
".N c #cacacd",
"cy c #cacace",
".f c #cbcbcb",
"bL c #ccccce",
".j c #cdcdcd",
".e c #cecece",
".B c #ceced0",
"bu c #ceced1",
".K c #cfcfcf",
".y c #d0d0d0",
"cG c #d0d0d2",
"a4 c #d1d1d1",
".o c #d1d1d2",
".q c #d1d1d3",
".i c #d2d2d2",
"bt c #d2d2d4",
"aR c #d2d2d5",
".W c #d3d3d3",
"b7 c #d3d3d4",
"#4 c #d3d3d5",
".x c #d4d4d4",
"aB c #d4d4d5",
".v c #d4d4d6",
"bs c #d5d5d4",
".u c #d5d5d5",
".n c #d5d5d6",
".M c #d6d6d6",
".m c #d6d6d7",
"b2 c #d7d7d7",
".s c #d8d8d8",
"b3 c #d8d8d9",
"bJ c #d9d9d9",
".Y c #d9d9da",
"#g c #dadada",
"#8 c #dadadb",
"bR c #dbdbdb",
"aj c #dcdcdc",
".w c #dcdcdd",
".t c #dddddd",
"bW c #ddddde",
".l c #dedede",
".L c #dfdfdf",
".H c #e0e0e0",
"cx c #e1e1e1",
"bF c #e1e1e2",
".d c #e2e2e2",
"bw c #e2e2e3",
".p c #e3e3e3",
"a7 c #e3e3e5",
".h c #e4e4e4",
".G c #e4e4e5",
"bi c #e4e4e6",
".g c #e5e5e5",
".r c #e6e6e6",
"#L c #e7e7e7",
"bP c #e7e7e8",
".k c #e8e8e8",
"cO c #e9e9e9",
".A c #eaeaea",
"bK c #eaeaeb",
".z c #ebebeb",
"cC c #ececec",
"#n c #ededed",
".X c #eeeeee",
"bO c #efefef",
"#i c #f0f0f0",
"#h c #f2f2f2",
"#K c #f3f3f3",
"#F c #f4f4f4",
"#E c #f5f5f5",
"av c #f6f6f6",
"ab c #f7f7f7",
"#3 c #f8f8f8",
"aw c #f9f9f9",
"ak c #fafafa",
"aF c #fbfbfb",
"aE c #fcfcfc",
"bg c #fdfdfd",
"a0 c #fefefe",
"bc c #ffffff",
"Qt.#.a.a.a.a.a.a.a.a.a.a.a.a.a.a.a.a.a.a.a.a.a.a.a.a.a.a.a.a.a.b",
".c.d.d.d.d.d.d.d.d.d.d.d.d.d.d.d.d.d.d.d.d.d.d.d.d.d.d.d.d.d.d.e",
".f.g.h.h.h.h.h.h.h.h.h.h.h.h.h.h.h.h.h.h.h.h.h.h.h.h.h.h.h.h.h.i",
".j.k.k.k.k.l.m.n.o.p.k.k.p.n.q.g.k.k.r.l.s.t.p.u.n.v.w.k.k.k.k.x",
".y.z.z.z.A.B.C.D.E.F.G.H.l.I.J.K.L.M.N.O.P.Q.R.S.T.U.V.g.z.z.z.s",
".W.X.X.X.Y.Z.0.1.2.d.q.3.4.5.6.7.8.T.9#.###a#b#c#d#.#e#f.X.X.X#g",
".M#h#h#i#j#k#l#m.u#n#o#p#q#r#s#t#u#v#w#x#y#z#A#e#B#C#k#D.r#h#h.t",
".s#E#F.d#G#H#I#J#K#F#L#M#N#C#O#P#Q#R#S#T#U#V#W#X#Y#Z#0#1#2#F#F.H",
"#g#3#3#4#5#6#7.l#3#3#K#8#9a.#ea#aa.r.kab#3ac#Xadaeafagahai#F#3.d",
"ajakakacalaman#Eak#Eaoapaqalarasatauavaw.haxayazaAaBaCahaD.zak.h",
".laEaFaGaHaIaJaEaEaEaKaLaMa#aNaOaPaQ.taRaSaTaUaVaW#iaXaYaZ.daE#L",
".Ha0aFa1a2a3a4a0a0a0#Fa5.Ha6aP.H.r.fa7a8a9b.b#Qtawawa#babb.ta0.k",
".HbcaFbdbebf.sbcbcbcbca0bg#Tbh.la0a0bibjbkbla4bga0awbmbnbo#ga0.k",
".LbgaFbpbqbrbs.Xbtbubvabbgaw#EaFbgbgbwbxbybz.gbgbg#KbAbBbC.Mbg#L",
".taFaFbDa9bEa5bFbGbHbIbJakakakakakakbKbLbMbNbOakakbPbAa8bQbJak.g",
"bR#3#3bSbTbUbVbWbXbYbZ.i#3#3#3#3#3#3bubXb0b1b2#3#3b3b4b5b6.h#3.p",
"bJ#E#Eb7atb8b9.ec.c#ca.K#E#E#E#E#E#Ecbcccdce.K#E#Fcf#ecgchbO#E.H",
".M#h#h#nci#Ccjckclcmcnb2#h#h#h#h#h#h.hcocmcn.M#h.Lcpcqcrcs#h#h.l",
".xbObObOctcucvcwcx.X.XbObObObObObObObO.X.X.XbO.AcyczcAcB.MbObObR",
"a4cCcCcC.rcD#scEcF.kcCcCcCcCcCcCcCcCcCcCcCcC.AcGcHcIcJcK.AcCcC.s",
".e.k.k.k.k.4cLcMcN.acO.k.k.k.k.k.k.k.k.k.k.k.hcPcMcQcRbJ.k.k.k.u",
".f.g.g.g.g.g.x.j.j.t.g.g.g.g.g.g.g.g.g.g.g.g.gbR.j.jb2.g.g.g.g.i",
"#U.d.d.d.d.d.d.d.d.d.d.d.d.d.d.d.d.d.d.d.d.d.d.d.d.d.d.d.d.d.d.y",
".b.j.j.j.j.j.j.j.j.j.j.j.j.j.j.j.j.j.j.j.j.j.j.j.j.j.j.j.j.j.jcS"};
